# xmcd
#
# Track frame offsets:
#	150
#	18179
#	33506
#	50792
#	64587
#	77947
#	95596
#	110249
#	128053
#	140534
#	155397
#	167225
#	180877
#	195046
#	206326
#	219780
#	235433
#	254091
#	266540
#	278253
#
# Disc length: 3901 seconds
#
# Revision: 1
# Processed by: cddbd v1.4PL0 Copyright (c) Steve Scherf et al.
# Submitted via: EasyCDDAExtractor 6.2.0.3
#
DISCID=130f3b14
DTITLE=Coletânia Country Vol 06 - Vol 06
DYEAR=2003
DGENRE=Country
TTITLE0=Galera Felicidade - Zezé Di Camargo and Luciano
TTITLE1=Escorpião - Leonardo
TTITLE2=Das 6:00 Da Tarde Às 6:00 Da Manhã
TTITLE3=Mulher Chorona - Teodoro and Sampaio
TTITLE4=Eu Quero Te Namorar - Matogrosso and Mathias
TTITLE5=A Outra (Misturinha) - Guilherme and Santiago
TTITLE6=Mexe Que Mexe - Zezé Di Camargo and Luciano
TTITLE7=Malícia - Arlan Batista
TTITLE8=Mulher Boa - Dois A Um
TTITLE9=Vai Chover Mulher - Teodoro and Sampaio
TTITLE10=Só Fazendo Amor - Matogrosso and Mathias
TTITLE11=É Bom Demais Da Conta - Trio Chapahall's
TTITLE12=Na Base Do Nhenhenhem - Dois A Um
TTITLE13=O Amor Se Vai - Leonardo
TTITLE14=Tontão - Teodoro and Sampaio
TTITLE15=Tadim Tadim - Dois A Um
TTITLE16=Acorda Pra Vida - Ghilherma and Santiago
TTITLE17=Brinquinho Na Orelha - Teodoro and Sampaio
TTITLE18=Um Tiquim - Maurício and Marcelo
TTITLE19=Mexe Com Isso Não - Guilherme and Gustavo
EXTD=
EXTT0=
EXTT1=
EXTT2=
EXTT3=
EXTT4=
EXTT5=
EXTT6=
EXTT7=
EXTT8=
EXTT9=
EXTT10=
EXTT11=
EXTT12=
EXTT13=
EXTT14=
EXTT15=
EXTT16=
EXTT17=
EXTT18=
EXTT19=
PLAYORDER=
